<svg width="454" height="191" viewBox="0 0 454 191" fill="none" xmlns="http://www.w3.org/2000/svg">
<path d="M139.144 130.832C135.859 130.832 132.936 130.107 130.376 128.656C127.816 127.205 125.811 125.136 124.36 122.448C122.909 119.76 122.184 116.603 122.184 112.976V85.2H125.32V113.616C125.32 116.219 125.875 118.608 126.984 120.784C128.093 122.96 129.672 124.709 131.72 126.032C133.811 127.312 136.285 127.952 139.144 127.952C141.96 127.952 144.392 127.312 146.44 126.032C148.531 124.709 150.131 122.96 151.24 120.784C152.349 118.608 152.904 116.219 152.904 113.616V85.2H155.976V112.976C155.976 116.603 155.251 119.76 153.8 122.448C152.392 125.136 150.408 127.205 147.848 128.656C145.331 130.107 142.429 130.832 139.144 130.832ZM161.444 130L177.38 88.784C177.977 87.2053 178.681 86.0747 179.492 85.392C180.345 84.7093 181.369 84.368 182.564 84.368C183.758 84.368 184.782 84.7093 185.636 85.392C186.489 86.032 187.193 87.1413 187.748 88.72L203.812 130H200.42L195.492 117.328H169.635L164.772 130H161.444ZM170.66 114.576H194.532L184.996 89.808C184.697 88.9973 184.377 88.3573 184.036 87.888C183.694 87.4187 183.204 87.184 182.564 87.184C181.924 87.184 181.433 87.4187 181.092 87.888C180.793 88.3147 180.473 88.9547 180.132 89.808L170.66 114.576ZM208.927 130V127.184H228.575C230.58 127.184 232.287 126.736 233.695 125.84C235.103 124.901 236.148 123.707 236.831 122.256C237.556 120.805 237.919 119.291 237.919 117.712C237.919 116.176 237.577 114.725 236.895 113.36C236.212 111.952 235.188 110.821 233.823 109.968C232.5 109.072 230.836 108.624 228.831 108.624H219.423C216.863 108.624 214.687 108.112 212.895 107.088C211.103 106.021 209.737 104.613 208.799 102.864C207.86 101.072 207.391 99.1733 207.391 97.168C207.391 95.12 207.86 93.1787 208.799 91.344C209.737 89.5093 211.124 88.0373 212.959 86.928C214.793 85.776 217.012 85.2 219.615 85.2H238.111V88.016H219.807C217.844 88.016 216.159 88.464 214.751 89.36C213.385 90.2133 212.34 91.3227 211.615 92.688C210.889 94.0533 210.527 95.4827 210.527 96.976C210.527 98.384 210.847 99.7707 211.487 101.136C212.169 102.501 213.172 103.611 214.495 104.464C215.86 105.317 217.524 105.744 219.487 105.744H228.959C231.604 105.744 233.823 106.277 235.615 107.344C237.407 108.411 238.751 109.84 239.647 111.632C240.543 113.381 240.991 115.301 240.991 117.392C240.991 119.568 240.521 121.637 239.583 123.6C238.687 125.52 237.321 127.077 235.487 128.272C233.652 129.424 231.412 130 228.767 130H208.927ZM247.578 130V127.184H256.794V88.016H247.578V85.2H269.018V88.016H259.866V127.184H269.018V130H247.578ZM297.399 142.992V129.872H300.471V142.992H297.399ZM298.935 130.832C295.436 130.832 292.258 130.235 289.399 129.04C286.583 127.845 284.151 126.181 282.103 124.048C280.098 121.915 278.54 119.44 277.431 116.624C276.364 113.808 275.831 110.8 275.831 107.6C275.831 104.4 276.364 101.392 277.431 98.576C278.54 95.76 280.098 93.2853 282.103 91.152C284.151 89.0187 286.583 87.3547 289.399 86.16C292.258 84.9653 295.436 84.368 298.935 84.368C302.434 84.368 305.591 84.9653 308.407 86.16C311.266 87.3547 313.698 89.0187 315.703 91.152C317.708 93.2853 319.244 95.76 320.311 98.576C321.42 101.392 321.975 104.4 321.975 107.6C321.975 110.8 321.42 113.808 320.311 116.624C319.244 119.44 317.708 121.915 315.703 124.048C313.698 126.181 311.266 127.845 308.407 129.04C305.591 130.235 302.434 130.832 298.935 130.832ZM298.935 128.016C301.794 128.016 304.439 127.504 306.871 126.48C309.303 125.456 311.415 124.027 313.207 122.192C314.999 120.357 316.386 118.203 317.367 115.728C318.391 113.211 318.903 110.501 318.903 107.6C318.903 104.656 318.391 101.947 317.367 99.472C316.386 96.9973 314.999 94.8427 313.207 93.008C311.415 91.1307 309.303 89.7013 306.871 88.72C304.439 87.696 301.794 87.184 298.935 87.184C296.034 87.184 293.367 87.696 290.935 88.72C288.503 89.7013 286.391 91.1307 284.599 93.008C282.807 94.8427 281.42 96.9973 280.439 99.472C279.458 101.947 278.967 104.656 278.967 107.6C278.967 110.501 279.458 113.211 280.439 115.728C281.42 118.203 282.807 120.357 284.599 122.192C286.391 124.027 288.503 125.456 290.935 126.48C293.367 127.504 296.034 128.016 298.935 128.016ZM347.582 130.832C344.296 130.832 341.374 130.107 338.814 128.656C336.254 127.205 334.248 125.136 332.798 122.448C331.347 119.76 330.622 116.603 330.622 112.976V85.2H333.758V113.616C333.758 116.219 334.312 118.608 335.422 120.784C336.531 122.96 338.11 124.709 340.158 126.032C342.248 127.312 344.723 127.952 347.582 127.952C350.398 127.952 352.83 127.312 354.878 126.032C356.968 124.709 358.568 122.96 359.678 120.784C360.787 118.608 361.342 116.219 361.342 113.616V85.2H364.414V112.976C364.414 116.603 363.688 119.76 362.238 122.448C360.83 125.136 358.846 127.205 356.286 128.656C353.768 130.107 350.867 130.832 347.582 130.832ZM372.953 130V127.184H382.169V88.016H372.953V85.2H394.393V88.016H385.241V127.184H394.393V130H372.953ZM409.974 130C407.329 130 405.259 129.189 403.766 127.568C402.273 125.947 401.526 124.069 401.526 121.936C401.526 120.187 401.91 118.779 402.678 117.712C403.446 116.645 404.662 115.472 406.326 114.192L426.678 98.704C428.043 97.7227 428.982 96.8267 429.494 96.016C430.006 95.1627 430.262 94.1387 430.262 92.944C430.262 92.1333 430.049 91.3653 429.622 90.64C429.195 89.872 428.598 89.2533 427.83 88.784C427.105 88.272 426.294 88.016 425.398 88.016H403.254V85.2H425.206C426.955 85.2 428.449 85.584 429.686 86.352C430.966 87.0773 431.905 88.0373 432.502 89.232C433.142 90.384 433.462 91.6427 433.462 93.008C433.462 94.8427 433.035 96.3787 432.182 97.616C431.371 98.8107 430.155 100.005 428.534 101.2L408.502 116.496C407.521 117.221 406.753 117.84 406.198 118.352C405.643 118.864 405.238 119.419 404.982 120.016C404.769 120.571 404.662 121.275 404.662 122.128C404.662 122.896 404.875 123.685 405.302 124.496C405.771 125.264 406.411 125.904 407.222 126.416C408.033 126.928 408.971 127.184 410.038 127.184H433.206V130H409.974Z" fill="#F2E9EB"/>
<path d="M63.048 172.984V146.744H69.192V172.984H63.048ZM66.12 148.664C59.1227 148.664 52.7653 147.469 47.048 145.08C41.416 142.691 36.552 139.363 32.456 135.096C28.4453 130.829 25.3307 125.88 23.112 120.248C20.9787 114.616 19.912 108.6 19.912 102.2C19.912 95.8 20.9787 89.784 23.112 84.152C25.3307 78.52 28.4453 73.5707 32.456 69.304C36.552 65.0373 41.416 61.7093 47.048 59.32C52.7653 56.9307 59.1227 55.736 66.12 55.736C73.1173 55.736 79.432 56.9307 85.064 59.32C90.7813 61.7093 95.6453 65.0373 99.656 69.304C103.667 73.5707 106.739 78.52 108.872 84.152C111.091 89.784 112.2 95.8 112.2 102.2C112.2 108.6 111.091 114.616 108.872 120.248C106.739 125.88 103.667 130.829 99.656 135.096C95.6453 139.363 90.7813 142.691 85.064 145.08C79.432 147.469 73.1173 148.664 66.12 148.664ZM66.12 143.032C71.8373 143.032 77.128 142.008 81.992 139.96C86.856 137.912 91.08 135.053 94.664 131.384C98.248 127.715 101.021 123.405 102.984 118.456C105.032 113.421 106.056 108.003 106.056 102.2C106.056 96.312 105.032 90.8933 102.984 85.944C101.021 80.9947 98.248 76.6853 94.664 73.016C91.08 69.2613 86.856 66.4027 81.992 64.44C77.128 62.392 71.8373 61.368 66.12 61.368C60.3173 61.368 54.984 62.392 50.12 64.44C45.256 66.4027 41.032 69.2613 37.448 73.016C33.864 76.6853 31.0907 80.9947 29.128 85.944C27.1653 90.8933 26.184 96.312 26.184 102.2C26.184 108.003 27.1653 113.421 29.128 118.456C31.0907 123.405 33.864 127.715 37.448 131.384C41.032 135.053 45.256 137.912 50.12 139.96C54.984 142.008 60.3173 143.032 66.12 143.032Z" fill="#F3D849"/>
<path d="M89 101.5C89 108.404 83.4036 114 76.5 114C69.5964 114 64 108.404 64 101.5C64 94.5964 69.5964 89 76.5 89C83.4036 89 89 94.5964 89 101.5ZM75.0541 108.119L84.3283 98.8445C84.6432 98.5295 84.6432 98.0189 84.3283 97.704L83.1879 96.5635C82.8729 96.2485 82.3623 96.2485 82.0473 96.5635L74.4839 104.127L70.9527 100.596C70.6378 100.281 70.1271 100.281 69.8121 100.596L68.6717 101.736C68.3568 102.051 68.3568 102.562 68.6717 102.877L73.9136 108.119C74.2286 108.434 74.7392 108.434 75.0541 108.119V108.119Z" fill="#F3D849"/>
<path d="M55.5 89C48.5948 89 43 94.5948 43 101.5C43 108.405 48.5948 114 55.5 114C62.4052 114 68 108.405 68 101.5C68 94.5948 62.4052 89 55.5 89ZM61.629 104.781C61.8659 105.018 61.8659 105.401 61.629 105.638L59.6331 107.629C59.3962 107.866 59.0131 107.866 58.7762 107.629L55.5 104.323L52.2187 107.629C51.9819 107.866 51.5988 107.866 51.3619 107.629L49.371 105.633C49.1341 105.396 49.1341 105.013 49.371 104.776L52.6774 101.5L49.371 98.2187C49.1341 97.9819 49.1341 97.5988 49.371 97.3619L51.3669 95.3659C51.6038 95.129 51.9869 95.129 52.2238 95.3659L55.5 98.6774L58.7813 95.371C59.0181 95.1341 59.4012 95.1341 59.6381 95.371L61.6341 97.3669C61.871 97.6038 61.871 97.9869 61.6341 98.2238L58.3226 101.5L61.629 104.781Z" fill="#F3D849"/>
</svg>
