<svg width="272" height="200" viewBox="0 0 272 200" fill="none" xmlns="http://www.w3.org/2000/svg">
<g filter="url(#filter0_d_79_1721)">
<path d="M55.68 147V125.24H20.224C17.5787 125.24 15.2747 124.643 13.312 123.448C11.3493 122.168 9.81333 120.504 8.704 118.456C7.68 116.408 7.168 114.189 7.168 111.8C7.168 110.435 7.33867 109.112 7.68 107.832C8.02133 106.467 8.49067 105.229 9.088 104.12L35.968 57.4H42.88L14.976 105.912C14.3787 106.851 13.952 107.789 13.696 108.728C13.44 109.667 13.312 110.648 13.312 111.672C13.312 113.72 13.952 115.597 15.232 117.304C16.5973 118.925 18.5173 119.736 20.992 119.736H55.68V85.048H61.952V119.736H75.008V125.24H61.952V147H55.68ZM132.173 172.984V146.744H138.317V172.984H132.173ZM135.245 148.664C128.248 148.664 121.89 147.469 116.173 145.08C110.541 142.691 105.677 139.363 101.581 135.096C97.5703 130.829 94.4557 125.88 92.237 120.248C90.1037 114.616 89.037 108.6 89.037 102.2C89.037 95.8 90.1037 89.784 92.237 84.152C94.4557 78.52 97.5703 73.5707 101.581 69.304C105.677 65.0373 110.541 61.7093 116.173 59.32C121.89 56.9307 128.248 55.736 135.245 55.736C142.242 55.736 148.557 56.9307 154.189 59.32C159.906 61.7093 164.77 65.0373 168.781 69.304C172.792 73.5707 175.864 78.52 177.997 84.152C180.216 89.784 181.325 95.8 181.325 102.2C181.325 108.6 180.216 114.616 177.997 120.248C175.864 125.88 172.792 130.829 168.781 135.096C164.77 139.363 159.906 142.691 154.189 145.08C148.557 147.469 142.242 148.664 135.245 148.664ZM135.245 143.032C140.962 143.032 146.253 142.008 151.117 139.96C155.981 137.912 160.205 135.053 163.789 131.384C167.373 127.715 170.146 123.405 172.109 118.456C174.157 113.421 175.181 108.003 175.181 102.2C175.181 96.312 174.157 90.8933 172.109 85.944C170.146 80.9947 167.373 76.6853 163.789 73.016C160.205 69.2613 155.981 66.4027 151.117 64.44C146.253 62.392 140.962 61.368 135.245 61.368C129.442 61.368 124.109 62.392 119.245 64.44C114.381 66.4027 110.157 69.2613 106.573 73.016C102.989 76.6853 100.216 80.9947 98.253 85.944C96.2903 90.8933 95.309 96.312 95.309 102.2C95.309 108.003 96.2903 113.421 98.253 118.456C100.216 123.405 102.989 127.715 106.573 131.384C110.157 135.053 114.381 137.912 119.245 139.96C124.109 142.008 129.442 143.032 135.245 143.032ZM243.93 147V125.24H208.474C205.829 125.24 203.525 124.643 201.562 123.448C199.599 122.168 198.063 120.504 196.954 118.456C195.93 116.408 195.418 114.189 195.418 111.8C195.418 110.435 195.589 109.112 195.93 107.832C196.271 106.467 196.741 105.229 197.338 104.12L224.218 57.4H231.13L203.226 105.912C202.629 106.851 202.202 107.789 201.946 108.728C201.69 109.667 201.562 110.648 201.562 111.672C201.562 113.72 202.202 115.597 203.482 117.304C204.847 118.925 206.767 119.736 209.242 119.736H243.93V85.048H250.202V119.736H263.258V125.24H250.202V147H243.93Z" fill="white"/>
<path d="M161 100.5C161 107.404 155.404 113 148.5 113C141.596 113 136 107.404 136 100.5C136 93.5964 141.596 88 148.5 88C155.404 88 161 93.5964 161 100.5ZM147.054 107.119L156.328 97.8445C156.643 97.5295 156.643 97.0189 156.328 96.704L155.188 95.5635C154.873 95.2485 154.362 95.2485 154.047 95.5635L146.484 103.127L142.953 99.5957C142.638 99.2808 142.127 99.2808 141.812 99.5957L140.672 100.736C140.357 101.051 140.357 101.562 140.672 101.877L145.914 107.119C146.229 107.434 146.739 107.434 147.054 107.119V107.119Z" fill="#F3D849"/>
<path d="M126.5 88C119.595 88 114 93.5948 114 100.5C114 107.405 119.595 113 126.5 113C133.405 113 139 107.405 139 100.5C139 93.5948 133.405 88 126.5 88ZM132.629 103.781C132.866 104.018 132.866 104.401 132.629 104.638L130.633 106.629C130.396 106.866 130.013 106.866 129.776 106.629L126.5 103.323L123.219 106.629C122.982 106.866 122.599 106.866 122.362 106.629L120.371 104.633C120.134 104.396 120.134 104.013 120.371 103.776L123.677 100.5L120.371 97.2187C120.134 96.9819 120.134 96.5988 120.371 96.3619L122.367 94.3659C122.604 94.129 122.987 94.129 123.224 94.3659L126.5 97.6774L129.781 94.371C130.018 94.1341 130.401 94.1341 130.638 94.371L132.634 96.3669C132.871 96.6038 132.871 96.9869 132.634 97.2238L129.323 100.5L132.629 103.781Z" fill="#F3D849"/>
</g>
<defs>
<filter id="filter0_d_79_1721" x="3.16797" y="55.736" width="264.09" height="125.248" filterUnits="userSpaceOnUse" color-interpolation-filters="sRGB">
<feFlood flood-opacity="0" result="BackgroundImageFix"/>
<feColorMatrix in="SourceAlpha" type="matrix" values="0 0 0 0 0 0 0 0 0 0 0 0 0 0 0 0 0 0 127 0" result="hardAlpha"/>
<feOffset dy="4"/>
<feGaussianBlur stdDeviation="2"/>
<feComposite in2="hardAlpha" operator="out"/>
<feColorMatrix type="matrix" values="0 0 0 0 0 0 0 0 0 0 0 0 0 0 0 0 0 0 0.25 0"/>
<feBlend mode="normal" in2="BackgroundImageFix" result="effect1_dropShadow_79_1721"/>
<feBlend mode="normal" in="SourceGraphic" in2="effect1_dropShadow_79_1721" result="shape"/>
</filter>
</defs>
</svg>
