<svg width="314" height="314" viewBox="0 0 314 314" fill="none" xmlns="http://www.w3.org/2000/svg">
<g filter="url(#filter0_d_70_1782)">
<path d="M274 126.5C274 190.841 221.841 243 157.5 243C93.1588 243 41 190.841 41 126.5C41 62.1588 93.1588 10 157.5 10C221.841 10 274 62.1588 274 126.5ZM50.0882 126.5C50.0882 185.822 98.1781 233.912 157.5 233.912C216.822 233.912 264.912 185.822 264.912 126.5C264.912 67.1781 216.822 19.0882 157.5 19.0882C98.1781 19.0882 50.0882 67.1781 50.0882 126.5Z" fill="#F3D849"/>
<path d="M218.869 127.037C218.869 144.731 204.525 159.075 186.831 159.075C169.137 159.075 154.794 144.731 154.794 127.037C154.794 109.344 169.137 95 186.831 95C204.525 95 218.869 109.344 218.869 127.037ZM183.126 144.001L206.895 120.231C207.702 119.424 207.702 118.115 206.895 117.308L203.972 114.385C203.165 113.578 201.856 113.578 201.049 114.385L181.664 133.77L172.614 124.72C171.806 123.913 170.498 123.913 169.69 124.72L166.767 127.643C165.96 128.45 165.96 129.759 166.767 130.566L180.202 144.001C181.01 144.808 182.318 144.808 183.126 144.001Z" fill="#F3D849"/>
<path d="M130.037 95C112.339 95 98 109.339 98 127.037C98 144.736 112.339 159.075 130.037 159.075C147.736 159.075 162.075 144.736 162.075 127.037C162.075 109.339 147.736 95 130.037 95ZM145.746 135.447C146.353 136.055 146.353 137.036 145.746 137.643L140.631 142.746C140.023 143.353 139.042 143.353 138.434 142.746L130.037 134.272L121.628 142.746C121.02 143.353 120.039 143.353 119.432 142.746L114.329 137.631C113.722 137.023 113.722 136.042 114.329 135.434L122.803 127.037L114.329 118.628C113.722 118.02 113.722 117.039 114.329 116.432L119.444 111.316C120.052 110.709 121.033 110.709 121.641 111.316L130.037 119.803L138.447 111.329C139.055 110.722 140.036 110.722 140.643 111.329L145.759 116.444C146.366 117.052 146.366 118.033 145.759 118.641L137.272 127.037L145.746 135.447Z" fill="#F3D849"/>
<rect x="152" y="241" width="12" height="62" fill="#F3D849"/>
</g>
<defs>
<filter id="filter0_d_70_1782" x="37" y="10" width="241" height="301" filterUnits="userSpaceOnUse" color-interpolation-filters="sRGB">
<feFlood flood-opacity="0" result="BackgroundImageFix"/>
<feColorMatrix in="SourceAlpha" type="matrix" values="0 0 0 0 0 0 0 0 0 0 0 0 0 0 0 0 0 0 127 0" result="hardAlpha"/>
<feOffset dy="4"/>
<feGaussianBlur stdDeviation="2"/>
<feComposite in2="hardAlpha" operator="out"/>
<feColorMatrix type="matrix" values="0 0 0 0 0 0 0 0 0 0 0 0 0 0 0 0 0 0 0.25 0"/>
<feBlend mode="normal" in2="BackgroundImageFix" result="effect1_dropShadow_70_1782"/>
<feBlend mode="normal" in="SourceGraphic" in2="effect1_dropShadow_70_1782" result="shape"/>
</filter>
</defs>
</svg>
